<?xml version="1.0" encoding="UTF-8"?>
<svg version="1.1" xmlns="http://www.w3.org/2000/svg" width="500" height="500">
<path d="M0 0 C165 0 330 0 500 0 C500 165 500 330 500 500 C335 500 170 500 0 500 C0 335 0 170 0 0 Z " fill="#FEFEFE" transform="translate(0,0)"/>
<path d="M0 0 C2.75 2.3125 2.75 2.3125 5 5 C5.763125 5.825 6.52625 6.65 7.3125 7.5 C10.34317706 13.78584872 10.03529017 20.94861845 7.8125 27.5 C4.52170109 32.03903298 1.00761421 35.42852243 -4 38 C-4.66 38 -5.32 38 -6 38 C-6 41.96 -6 45.92 -6 50 C7.53 50 21.06 50 35 50 C35 53.63 35 57.26 35 61 C21.47 61 7.94 61 -6 61 C-6 64.3 -6 67.6 -6 71 C-9.25 73.875 -9.25 73.875 -11.078125 74.8671875 C-13.54930183 76.21583158 -13.54930183 76.21583158 -17 80 C-17 73.73 -17 67.46 -17 61 C-30.2 61 -43.4 61 -57 61 C-57 57.37 -57 53.74 -57 50 C-43.8 50 -30.6 50 -17 50 C-17.495 44.06 -17.495 44.06 -18 38 C-21.88360501 34.83410924 -21.88360501 34.83410924 -24.76953125 33.36328125 C-28.78142983 30.91117511 -30.08468527 27.36456305 -31.75 23.0625 C-32.61184153 15.95230737 -32.23688141 10.90809574 -28 5 C-19.96349555 -3.53055186 -10.64497825 -5.72310659 0 0 Z " fill="#45BCAD" transform="translate(260,154)"/>
<path d="M0 0 C1 1 1 1 1.09765625 3.50390625 C1.08605469 4.51324219 1.07445312 5.52257812 1.0625 6.5625 C1.05347656 7.57441406 1.04445313 8.58632812 1.03515625 9.62890625 C1.02355469 10.41136719 1.01195312 11.19382813 1 12 C0.26136719 11.7834375 -0.47726562 11.566875 -1.23828125 11.34375 C-12.67592058 8.2045758 -20.7634736 7.40620823 -31.3984375 13.30078125 C-37.49528372 17.28295558 -40.95484004 23.05520547 -43 30 C-44.25656832 38.56751128 -42.51862604 46.96939142 -37.52734375 54.10546875 C-32.92760613 59.20541424 -26.73953915 62.52604608 -19.8515625 63.21484375 C-19.15804687 63.24707031 -18.46453125 63.27929688 -17.75 63.3125 C-10.92584086 63.75514816 -4.88604821 67.79323405 1 71 C0.89558594 69.60587891 0.89558594 69.60587891 0.7890625 68.18359375 C0.35105904 58.18251465 0.35105904 58.18251465 2.23046875 54.7578125 C3.8125 53.0625 3.8125 53.0625 5.46484375 51.53125 C7.93841846 49.06396937 8.80795589 46.24500897 10 43 C6.04 43 2.08 43 -2 43 C-0.70433323 39.11299969 1.70354807 37.6570272 4.875 35.3125 C5.45419189 34.87695801 6.03338379 34.44141602 6.63012695 33.99267578 C8.41488573 32.65465506 10.2073028 31.32735667 12 30 C13.0797128 29.18918241 14.15915417 28.37800322 15.23828125 27.56640625 C22.7296123 22 22.7296123 22 25 22 C25.87970221 34.68726072 23.92104504 45.60249748 16.375 56.0078125 C11.92376874 62.82593582 11.99501168 69.23578835 12.0625 77.1875 C12.04935578 78.53453941 12.03309845 79.88155217 12.01367188 81.22851562 C11.97863718 84.48674253 11.9747375 87.74177758 12 91 C9.70645643 89.79512511 7.41501254 88.58655738 5.125 87.375 C4.09487793 86.83238525 4.09487793 86.83238525 3.04394531 86.27880859 C-0.8410515 84.21427794 -4.56470503 82.03415723 -8.25 79.625 C-12.50845373 77.00657886 -16.30000703 76.18552437 -21.20703125 75.47265625 C-32.50493564 73.5607032 -41.15818456 68.24616016 -47.875 59 C-54.05376046 49.56022707 -56.60135699 39.73960933 -54.5390625 28.484375 C-51.41973292 16.81441259 -44.78387122 7.59488433 -34.33984375 1.4296875 C-23.25849716 -4.28234683 -11.67533464 -4.81482817 0 0 Z " fill="#FD6C55" transform="translate(296,225)"/>
<path d="M0 0 C4.48918418 2.90637152 8.69645663 6.04067652 12.875 9.375 C16.83486759 12.51673907 20.80273384 15.62897561 24.875 18.625 C25.90625 19.40875 26.9375 20.1925 28 21 C28 21.33 28 21.66 28 22 C23.71 22 19.42 22 15 22 C25.42159953 41.48386 40.15358104 49.51155897 59.48046875 58.3359375 C63 60 63 60 66 62 C66 55.73 66 49.46 66 43 C67.32 43.66 68.64 44.32 70 45 C70.33 45.99 70.66 46.98 71 48 C72.93330603 49.09166275 72.93330603 49.09166275 75 50 C77 52 77 52 77.1953125 54.3828125 C77.17210937 55.28773438 77.14890625 56.19265625 77.125 57.125 C77.10695313 58.03507812 77.08890625 58.94515625 77.0703125 59.8828125 C77.04710937 60.58148438 77.02390625 61.28015625 77 62 C78.010625 61.34 79.02125 60.68 80.0625 60 C87.58126546 55.79128866 95.19325408 58.84641492 103 61 C101.35019335 64.29961331 97.72277201 65.17506509 94.5 66.6875 C86.18754998 70.70917759 79.48680893 75.39838029 73 82 C69.76934599 80.584802 67.7272805 78.86218962 65.25 76.375 C58.1721255 69.93844856 49.31501122 66.46429006 40.72265625 62.48046875 C21.36746038 53.24796402 9.37627814 39.71098399 1.8359375 19.94921875 C-0.22045021 13.30920048 -0.32550277 6.90789222 0 0 Z " fill="#47BDAE" transform="translate(177,246)"/>
<path d="M0 0 C3.06281917 1.73559753 5.40097088 3.80194177 7 7 C7.34708476 12.29304255 7.51351894 15.73358414 4 20 C0.96730454 22.35876313 -2.26376206 22.36538763 -6.0390625 22.24609375 C-9.03580677 21.87000831 -10.71401456 20.95941609 -13 19 C-15.34616999 15.63715635 -16.26882352 12.9875542 -16.0625 8.9375 C-15.39955711 5.30178162 -13.97814922 3.04465354 -10.875 0.8515625 C-7.25169007 -0.79402409 -3.85145194 -0.88033187 0 0 Z " fill="#FC6B55" transform="translate(319,220)"/>
<path d="M0 0 C4.38255394 0.9048998 6.49454791 2.74572811 8.9296875 6.3984375 C9.71962269 13.39500631 9.71962269 13.39500631 6.6171875 17.3359375 C2.46222639 20.52462859 -0.90822652 21.02144788 -6.0703125 20.3984375 C-9.07085004 17.84478853 -10.62258171 16.23304172 -11.55078125 12.4296875 C-11.81692475 8.68929232 -11.21676349 5.99399947 -9.0703125 2.8984375 C-5.68190374 0.07476354 -4.25382763 -0.33709577 0 0 Z " fill="#FBFCFC" transform="translate(250.0703125,161.6015625)"/>
<path d="M0 0 C0 3 0 3 -1.3125 4.38671875 C-2.875 5.59114583 -4.4375 6.79557292 -6 8 C-3.36 8.33 -0.72 8.66 2 9 C2 9.33 2 9.66 2 10 C-1.96 10 -5.92 10 -10 10 C-8.78934835 6.36804504 -7.46308874 5.57103808 -4.4375 3.3125 C-3.61121094 2.68988281 -2.78492188 2.06726563 -1.93359375 1.42578125 C-1.29550781 0.95527344 -0.65742188 0.48476563 0 0 Z " fill="#FE7E69" transform="translate(304,258)"/>
</svg>
