<?xml version="1.0" encoding="UTF-8"?>
<svg version="1.1" xmlns="http://www.w3.org/2000/svg" width="229" height="229">
<path d="M0 0 C75.57 0 151.14 0 229 0 C229 75.57 229 151.14 229 229 C153.43 229 77.86 229 0 229 C0 153.43 0 77.86 0 0 Z " fill="#FEFEFE" transform="translate(0,0)"/>
<path d="M0 0 C3.5202823 2.70850988 6.10077266 5.49681337 7.375 9.8125 C8.11308853 16.5307831 8.48998046 23.13666488 4.375 28.8125 C1.3720361 32.21059073 -1.58481901 34.73781246 -5.625 36.8125 C-6.285 36.8125 -6.945 36.8125 -7.625 36.8125 C-7.625 40.7725 -7.625 44.7325 -7.625 48.8125 C5.905 48.8125 19.435 48.8125 33.375 48.8125 C33.375 52.7725 33.375 56.7325 33.375 60.8125 C20.175 60.8125 6.975 60.8125 -6.625 60.8125 C-6.625 63.4525 -6.625 66.0925 -6.625 68.8125 C-8.77734375 71.5625 -8.77734375 71.5625 -11.5625 73.8125 C-12.47902344 74.575625 -13.39554688 75.33875 -14.33984375 76.125 C-16.625 77.8125 -16.625 77.8125 -17.625 77.8125 C-17.625 71.8725 -17.625 65.9325 -17.625 59.8125 C-31.155 59.8125 -44.685 59.8125 -58.625 59.8125 C-58.625 56.1825 -58.625 52.5525 -58.625 48.8125 C-45.425 48.8125 -32.225 48.8125 -18.625 48.8125 C-19.12 42.8725 -19.12 42.8725 -19.625 36.8125 C-23.00039113 34.15970758 -23.00039113 34.15970758 -25.55078125 33.01953125 C-29.60818551 30.65844289 -31.89806069 26.2123317 -33.234375 21.80078125 C-34.41507868 15.79099951 -33.97947092 11.10129388 -31.03125 5.7734375 C-28.17452866 1.7898983 -24.34232582 -2.26762706 -19.6171875 -3.8671875 C-12.2442407 -5.05264169 -6.27969208 -4.05313459 0 0 Z " fill="#4ABEAE" transform="translate(123.625,36.1875)"/>
<path d="M0 0 C1 1 1 1 1.09765625 3.50390625 C1.08605469 4.51324219 1.07445312 5.52257812 1.0625 6.5625 C1.05347656 7.57441406 1.04445312 8.58632812 1.03515625 9.62890625 C1.02355469 10.41136719 1.01195312 11.19382812 1 12 C0.26136719 11.7834375 -0.47726563 11.566875 -1.23828125 11.34375 C-12.67592058 8.2045758 -20.7634736 7.40620823 -31.3984375 13.30078125 C-37.47129242 17.26728559 -41.04825486 23.04431253 -43 30 C-44.19132269 38.80255095 -42.99543777 45.63103931 -38 53 C-33.00620382 59.20850336 -27.14351422 61.84014269 -19.375 62.8125 C-11.7776174 63.85203956 -5.62219635 67.33624048 1 71 C0.89558594 69.60587891 0.89558594 69.60587891 0.7890625 68.18359375 C0.35105904 58.18251465 0.35105904 58.18251465 2.23046875 54.7578125 C3.8125 53.0625 3.8125 53.0625 5.46484375 51.53125 C7.93841846 49.06396937 8.80795589 46.24500897 10 43 C6.04 43 2.08 43 -2 43 C-2 42.34 -2 41.68 -2 41 C-0.11781984 39.39407531 1.76584956 37.90837816 3.75 36.4375 C4.33112549 36.00002441 4.91225098 35.56254883 5.51098633 35.11181641 C6.72698193 34.19722985 7.94487913 33.28516676 9.16455078 32.37548828 C10.94190293 31.04353803 12.7051691 29.69503027 14.46484375 28.33984375 C15.53890542 27.51802383 16.61311775 26.69640077 17.6875 25.875 C18.66074219 25.12992188 19.63398438 24.38484375 20.63671875 23.6171875 C23 22 23 22 25 22 C25.87970221 34.68726072 23.92104504 45.60249748 16.375 56.0078125 C11.92376874 62.82593582 11.99501168 69.23578835 12.0625 77.1875 C12.04935578 78.53453941 12.03309845 79.88155217 12.01367188 81.22851562 C11.97863718 84.48674253 11.9747375 87.74177758 12 91 C9.5167483 89.79950777 7.03781169 88.59170184 4.5625 87.375 C3.45588013 86.83238525 3.45588013 86.83238525 2.3269043 86.27880859 C-1.60321978 84.31699173 -5.17803019 82.29008609 -8.6875 79.625 C-13.10322085 76.48530494 -17.36550794 76.22771837 -22.65234375 75.609375 C-32.20713291 73.8701135 -41.09190561 68.23798872 -46.87109375 60.4921875 C-53.79200847 50.16117551 -56.7496045 40.8415253 -54.53125 28.36328125 C-51.4720585 16.7638468 -44.68581471 7.53700075 -34.33984375 1.4296875 C-23.25849716 -4.28234683 -11.67533464 -4.81482817 0 0 Z " fill="#FD6E57" transform="translate(158,106)"/>
<path d="M0 0 C4.51564723 2.92108078 8.73910866 6.07971066 12.9375 9.4375 C16.53920018 12.31327612 20.13956077 15.11444678 23.94140625 17.72265625 C25.45541016 18.84994141 25.45541016 18.84994141 27 20 C27 20.66 27 21.32 27 22 C23.04 22 19.08 22 15 22 C25.09230774 40.11439851 38.18492708 48.57511442 56.61987305 56.83081055 C59.82418442 58.40486401 62.90032873 60.22875927 66 62 C66 55.73 66 49.46 66 43 C70.29331941 45.1466597 70.10751614 45.21503228 72 49 C74.00016466 50.20882096 74.00016466 50.20882096 76 51 C77 52 77 52 77.09765625 54.28515625 C77.08605469 55.20167969 77.07445313 56.11820313 77.0625 57.0625 C77.05347656 57.98160156 77.04445313 58.90070313 77.03515625 59.84765625 C77.02355469 60.55792969 77.01195313 61.26820313 77 62 C78.010625 61.34 79.02125 60.68 80.0625 60 C87.58126546 55.79128866 95.19325408 58.84641492 103 61 C101.35923251 64.28153497 97.77020027 65.12903702 94.5625 66.625 C86.31482462 70.59589884 79.41324126 75.42491038 73 82 C69.79832024 80.59352258 67.76868162 78.90364584 65.3125 76.4375 C57.69458658 69.53142439 48.03918735 65.30351577 38.765625 61.0390625 C20.89925445 52.72941865 8.92635832 39.61984586 2 21 C0.25665404 13.99433196 -0.28106154 7.19829843 0 0 Z " fill="#49BEAF" transform="translate(39,127)"/>
<path d="M0 0 C3.57545703 0.02280993 5.54438404 0.46007439 8.3125 2.75 C11.7634784 6.37352732 12.10408439 8.32337524 12.03125 13.33984375 C11.71170564 16.31274757 10.69839752 18.08498159 8.8125 20.375 C5.77980454 22.73376313 2.54873794 22.74038763 -1.2265625 22.62109375 C-4.22330677 22.24500831 -5.90151456 21.33441609 -8.1875 19.375 C-10.51867811 15.95593877 -11.1875 13.96456112 -11.1875 9.8125 C-10.00625626 5.75197465 -8.37367154 4.08324581 -5.1875 1.375 C-3.63766739 -0.17483261 -2.15081622 0.09367039 0 0 Z " fill="#FC6C56" transform="translate(176.1875,100.625)"/>
<path d="M0 0 C4.38255394 0.9048998 6.49454791 2.74572811 8.9296875 6.3984375 C9.47158972 11.19814286 9.66707253 13.28046664 6.9921875 17.3359375 C3.0316096 20.00326547 -0.30434444 20.86467351 -5.0703125 20.3984375 C-7.99174667 18.63340436 -9.54955067 17.43996115 -11.0703125 14.3984375 C-11.52300667 9.87149575 -11.76292629 6.69339654 -9.0703125 2.8984375 C-5.68190374 0.07476354 -4.25382763 -0.33709577 0 0 Z " fill="#F8FCFB" transform="translate(112.0703125,42.6015625)"/>
<path d="M0 0 C0.66 0.33 1.32 0.66 2 1 C-1.3 4.3 -4.6 7.6 -8 11 C-8.33 10.34 -8.66 9.68 -9 9 C-8.06725891 7.87105124 -7.12859878 6.74699124 -6.1875 5.625 C-5.66542969 4.99851562 -5.14335938 4.37203125 -4.60546875 3.7265625 C-3 2 -3 2 0 0 Z " fill="#FEE5DE" transform="translate(127,118)"/>
</svg>
