<?xml version="1.0" encoding="UTF-8"?>
<svg version="1.1" xmlns="http://www.w3.org/2000/svg" width="862" height="862">
<path d="M0 0 C284.46 0 568.92 0 862 0 C862 284.46 862 568.92 862 862 C577.54 862 293.08 862 0 862 C0 577.54 0 293.08 0 0 Z " fill="#FEFEFE" transform="translate(0,0)"/>
<path d="M0 0 C1.15564453 -0.01224609 2.31128906 -0.02449219 3.50195312 -0.03710938 C26.1885349 -0.07532372 48.63950113 8.17613735 65.8125 23.1875 C67.22789062 24.37085938 67.22789062 24.37085938 68.671875 25.578125 C86.64642027 40.97008761 98.00125853 62.68637768 100.8125 86.1875 C101.15597241 91.64867628 101.25030445 97.09159572 101.25 102.5625 C101.25259827 103.67685425 101.25259827 103.67685425 101.25524902 104.8137207 C101.23629403 123.39958647 97.87213487 140.57915063 89.375 157.25 C89.00503906 157.98347656 88.63507813 158.71695313 88.25390625 159.47265625 C84.57363495 166.40433255 80.74444202 173.04000827 76.1875 179.4375 C75.66969971 180.16767334 75.15189941 180.89784668 74.6184082 181.65014648 C69.7073739 188.4864913 64.37123103 194.87398919 58.8125 201.1875 C58.21179688 201.88746094 57.61109375 202.58742188 56.9921875 203.30859375 C46.68405214 215.28495391 35.89298453 227.07031161 23.875 237.34375 C20.6024457 240.26921521 17.56123122 243.4185328 14.5 246.5625 C12.5147735 248.50155844 10.54152207 250.27979762 8.4296875 252.06640625 C4.35001783 255.60090634 0.55524253 259.38350919 -3.2421875 263.21484375 C-3.87417053 263.85233551 -4.50615356 264.48982727 -5.1572876 265.14663696 C-7.80407631 267.82121882 -10.44711491 270.49944264 -13.0859375 273.18188477 C-15.02955077 275.1555125 -16.9791855 277.12302729 -18.9296875 279.08984375 C-19.82806839 280.00841408 -19.82806839 280.00841408 -20.74459839 280.94554138 C-22.18805908 282.39779552 -23.68327628 283.79828013 -25.1875 285.1875 C-25.8475 285.1875 -26.5075 285.1875 -27.1875 285.1875 C-27.5175 286.1775 -27.8475 287.1675 -28.1875 288.1875 C-29.6484375 289.66015625 -29.6484375 289.66015625 -31.5625 291.25 C-34.86396508 294.03816309 -38.03826353 296.91604972 -41.1875 299.875 C-69.89164556 325.91914867 -69.89164556 325.91914867 -87.05078125 325.71875 C-98.73141991 323.74046001 -109.22986347 315.39816291 -118.1875 308.1875 C-119.3049248 307.33153669 -120.42480693 306.47877366 -121.546875 305.62890625 C-129.03674376 299.91939897 -136.01206178 293.81626521 -142.8359375 287.328125 C-145.2088094 285.07885493 -147.63334912 282.90591143 -150.1015625 280.76171875 C-156.98634253 274.77775106 -163.57196748 268.46563492 -170.1875 262.1875 C-171.01121094 261.40761719 -171.83492188 260.62773438 -172.68359375 259.82421875 C-194.43353051 238.68695627 -194.43353051 238.68695627 -196.1875 228.1875 C-196.8475 228.1875 -197.5075 228.1875 -198.1875 228.1875 C-198.83644237 226.12597611 -199.4815264 224.06323742 -200.125 222 C-200.48464844 220.85144531 -200.84429687 219.70289063 -201.21484375 218.51953125 C-202.79516011 213.10583705 -203.33484341 208.17802329 -203.32794189 202.54754639 C-203.33091302 201.78600006 -203.33388414 201.02445374 -203.3369453 200.23983026 C-203.34560571 197.6921022 -203.34713829 195.14442128 -203.34863281 192.59667969 C-203.35326286 190.76820272 -203.35828778 188.93972672 -203.36367798 187.11125183 C-203.37678586 182.14622629 -203.38324378 177.18121426 -203.38768864 172.21617413 C-203.39062193 169.11262264 -203.39472722 166.00907484 -203.39919281 162.90552521 C-203.41286342 153.19055885 -203.42253225 143.47560091 -203.4263947 133.7606256 C-203.43087468 122.55475216 -203.44842166 111.34900074 -203.4773953 100.1431644 C-203.4990267 91.4754762 -203.50909976 82.80782229 -203.51043582 74.14010739 C-203.51148279 68.96598444 -203.51736765 63.79197626 -203.53525543 58.61788177 C-203.55176132 53.74888434 -203.55387937 48.88008765 -203.54511642 44.01107216 C-203.5443474 42.22812931 -203.54867092 40.44517556 -203.55857468 38.66226006 C-203.66506935 18.28924846 -203.66506935 18.28924846 -197.75 11.3125 C-196.904375 10.61125 -196.05875 9.91 -195.1875 9.1875 C-194.589375 8.65125 -193.99125 8.115 -193.375 7.5625 C-186.93361805 3.51363134 -180.620236 2.12389334 -173.15234375 3.5859375 C-167.23554999 5.34159499 -163.55074502 9.11283157 -160.1875 14.1875 C-157.61128141 19.33153831 -156.75494036 23.47938197 -156.81568909 29.25537109 C-156.80995224 30.43065573 -156.80995224 30.43065573 -156.8040995 31.62968349 C-156.79485617 34.2402859 -156.80677974 36.85035211 -156.81860352 39.4609375 C-156.81613403 41.33908813 -156.81229413 43.21723738 -156.80718994 45.09538269 C-156.79886256 49.13428339 -156.79965084 53.17304304 -156.80737495 57.21194458 C-156.81898419 63.61003097 -156.80677154 70.00793704 -156.79075623 76.40600586 C-156.75459993 92.30335401 -156.74832521 108.20069795 -156.75085449 124.0980835 C-156.75256951 136.44462021 -156.74532374 148.79100901 -156.71087593 161.13750458 C-156.69416188 167.4850732 -156.69580848 173.83228003 -156.71169865 180.17984676 C-156.71753438 184.14778389 -156.70668568 188.11555303 -156.69145203 192.08345985 C-156.6877551 193.9090295 -156.69074789 195.73462837 -156.70132256 197.56017113 C-156.82075567 219.67085897 -151.08883235 236.40454895 -135.8984375 252.6640625 C-133.11462249 255.25533699 -130.40229443 257.17943192 -127.1875 259.1875 C-127.8475 257.2075 -128.5075 255.2275 -129.1875 253.1875 C-129.8475 253.1875 -130.5075 253.1875 -131.1875 253.1875 C-132.02830019 250.77320231 -132.86031402 248.35646007 -133.6875 245.9375 C-134.04521484 244.91462891 -134.04521484 244.91462891 -134.41015625 243.87109375 C-135.58171287 240.42336997 -136.1875 237.87047096 -136.1875 234.1875 C-136.8475 234.1875 -137.5075 234.1875 -138.1875 234.1875 C-140.76628514 220.18734349 -140.47889126 206.15889372 -140.453125 191.97265625 C-140.45447455 189.34525008 -140.45641749 186.71784416 -140.45892334 184.09043884 C-140.4625385 178.61129708 -140.45782509 173.13220965 -140.44824219 167.65307617 C-140.43732415 161.3380085 -140.44091727 155.02306967 -140.451895 148.70800501 C-140.46208969 142.59601906 -140.46098027 136.48408985 -140.45513153 130.37209892 C-140.4538007 127.78579121 -140.45542284 125.19948019 -140.46009064 122.61317635 C-140.46518161 119.00252726 -140.45741099 115.39212489 -140.44628906 111.78149414 C-140.45033752 110.72108414 -140.45438599 109.66067413 -140.45855713 108.56813049 C-140.38115919 94.97318288 -140.38115919 94.97318288 -136.56640625 90.12890625 C-135.96699219 89.67386719 -135.36757813 89.21882813 -134.75 88.75 C-134.15316406 88.27691406 -133.55632812 87.80382812 -132.94140625 87.31640625 C-128.68709044 84.57810498 -124.06310965 84.51253775 -119.1875 85.1875 C-112.190382 87.87365953 -105.51560304 94.53129392 -102.1875 101.1875 C-102.01210693 100.37297363 -101.83671387 99.55844727 -101.65600586 98.71923828 C-94.40837583 65.4322611 -84.57741926 36.06762646 -54.953125 15.99609375 C-51.73618057 13.9836504 -48.48551904 12.06351602 -45.1875 10.1875 C-44.52492188 9.78789062 -43.86234375 9.38828125 -43.1796875 8.9765625 C-30.10592354 1.64821947 -14.65332134 0.00803803 0 0 Z " fill="#20BAC8" transform="translate(526.1875,287.8125)"/>
<path d="M0 0 C1.45191015 1.19097968 2.88985315 2.39921387 4.3125 3.625 C4.99054688 4.19605469 5.66859375 4.76710938 6.3671875 5.35546875 C16.94914294 15.0109884 24.49488875 30.34343138 25.53027344 44.62988281 C26.00120651 57.59416428 26.2402526 70.80806286 22 83.1875 C21.77852295 83.83444824 21.5570459 84.48139648 21.32885742 85.14794922 C19.67156393 89.87780657 17.67954174 94.21740504 15.3125 98.625 C14.62209426 100.28197379 13.94278587 101.94423769 13.3125 103.625 C12.6525 103.625 11.9925 103.625 11.3125 103.625 C11.04179688 104.34816406 10.77109375 105.07132812 10.4921875 105.81640625 C3.94243435 121.41002386 -9.53688149 133.65172883 -21.25 145.4375 C-21.73251221 145.92536987 -22.21502441 146.41323975 -22.7121582 146.91589355 C-28.59313115 152.84628225 -34.64716812 158.41461765 -41.19506836 163.61010742 C-43.77760994 165.69784526 -46.23683473 167.88461861 -48.6875 170.125 C-53.85924902 174.8310465 -59.24810048 179.23369856 -64.6875 183.625 C-75.41068051 192.33465753 -86.05163121 201.12856479 -96.26953125 210.4296875 C-97.96404977 211.96816797 -99.67089979 213.49312427 -101.38671875 215.0078125 C-102.26972656 215.78898438 -103.15273438 216.57015625 -104.0625 217.375 C-104.85398437 218.07109375 -105.64546875 218.7671875 -106.4609375 219.484375 C-108.77989703 221.71383083 -110.73360807 224.07334205 -112.6875 226.625 C-119.57660739 225.87990151 -123.47481224 220.72498414 -127.6875 215.625 C-140.3981355 198.7434553 -146.6105118 180.76072699 -144.6875 159.625 C-142.61969964 145.58507025 -136.93901465 132.75850475 -130.14160156 120.44067383 C-125.89052555 112.51651898 -123.12527354 104.13776998 -120.35644531 95.60693359 C-119.83681961 94.0674002 -119.23984531 92.55388442 -118.61328125 91.0546875 C-117.30503357 87.62122734 -116.57691098 84.08409993 -115.8125 80.5 C-115.55750732 79.32606689 -115.55750732 79.32606689 -115.29736328 78.12841797 C-114.75617945 75.62823813 -114.22177967 73.12666329 -113.6875 70.625 C-113.32822599 68.96351983 -112.96885178 67.30206132 -112.609375 65.640625 C-112.25959651 64.01059244 -111.91062967 62.38038549 -111.5625 60.75 C-111.39105469 59.94836426 -111.21960938 59.14672852 -111.04296875 58.32080078 C-110.13789146 54.01544788 -109.39731492 49.73771931 -108.8125 45.375 C-107.6639569 38.01811583 -104.63213792 31.42089463 -101.6875 24.625 C-101.18734375 23.40425781 -100.6871875 22.18351562 -100.171875 20.92578125 C-98.22888764 16.60519094 -95.64116933 13.291624 -92.6875 9.625 C-92.24664062 9.0371875 -91.80578125 8.449375 -91.3515625 7.84375 C-69.03832714 -20.53146259 -27.14199395 -20.24148702 0 0 Z " fill="#FDFEFE" transform="translate(568.6875,334.375)"/>
<path d="M0 0 C4.72026345 3.70804065 7.95248919 8.7285964 9.78515625 14.40234375 C9.98302715 17.34544477 10.07895941 20.19391669 10.07568359 23.13647461 C10.08240082 24.00538834 10.08911804 24.87430206 10.09603882 25.76954651 C10.11500201 28.63548535 10.11894195 31.50118987 10.12109375 34.3671875 C10.12752204 36.36349076 10.13425043 38.35979308 10.14126587 40.35609436 C10.15323386 44.53811833 10.1569471 48.72005972 10.15576172 52.90209961 C10.15555838 58.25661414 10.18287863 63.61059884 10.21730614 68.96498775 C10.2395583 73.08714728 10.2435998 77.20917885 10.24254227 81.33139229 C10.24490006 83.30533235 10.25373361 85.27927584 10.269207 87.25315666 C10.288836 90.01542035 10.28304151 92.77653558 10.27099609 95.53881836 C10.28223511 96.35095795 10.29347412 97.16309753 10.30505371 97.99984741 C10.23356455 104.46189213 8.0598746 107.99764149 3.59765625 112.71484375 C-0.96090885 115.44998281 -5.3734993 115.97342122 -10.5859375 114.92578125 C-19.07244756 112.32115253 -25.90080158 107.42670723 -30.22265625 99.5703125 C-32.84173454 93.73459923 -33.343622 88.43225463 -33.3918457 82.09277344 C-33.3984169 81.37498215 -33.4049881 80.65719086 -33.41175842 79.91764832 C-33.43139309 77.55317054 -33.44313208 75.18875599 -33.453125 72.82421875 C-33.45720053 72.01259529 -33.46127605 71.20097183 -33.46547508 70.36475372 C-33.48629415 66.06852986 -33.50061369 61.77233753 -33.51000977 57.47607422 C-33.52106438 53.05676264 -33.55546505 48.63795589 -33.59518147 44.21882248 C-33.62142138 40.80427158 -33.62970811 37.38983968 -33.63329124 33.97519684 C-33.6381383 32.34702394 -33.64969821 30.71885568 -33.66832924 29.09078217 C-33.77284382 19.35245431 -33.78883073 10.83395328 -27.21484375 3.02734375 C-26.55484375 2.49109375 -25.89484375 1.95484375 -25.21484375 1.40234375 C-24.22484375 0.56703125 -24.22484375 0.56703125 -23.21484375 -0.28515625 C-16.67258083 -4.57851629 -6.57968793 -3.79649345 0 0 Z " fill="#22BAC9" transform="translate(292.21484375,362.59765625)"/>
<path d="M0 0 C0.66 0.33 1.32 0.66 2 1 C-2.76008307 6.5930976 -7.74595676 11.86877855 -13 17 C-13.66 16.67 -14.32 16.34 -15 16 C-10.13036358 10.52436438 -5.24944351 5.1148424 0 0 Z " fill="#3FC8D3" transform="translate(463,310)"/>
<path d="M0 0 C-0.33 0.66 -0.66 1.32 -1 2 C-3.66902136 2.53203084 -6.24237231 2.9332002 -8.9375 3.25 C-10.0502832 3.4046875 -10.0502832 3.4046875 -11.18554688 3.5625 C-13.11456862 3.80034856 -15.0585096 3.90883076 -17 4 C-17.66 3.34 -18.32 2.68 -19 2 C-12.56971459 0.67611771 -6.5705166 -0.24794402 0 0 Z " fill="#3BC9D2" transform="translate(521,288)"/>
<path d="M0 0 C0 3 0 3 -1.42578125 4.7890625 C-2.04839844 5.39492188 -2.67101562 6.00078125 -3.3125 6.625 C-4.23482422 7.54152344 -4.23482422 7.54152344 -5.17578125 8.4765625 C-7 10 -7 10 -10 11 C-7.99155908 6.07019047 -4.35894926 2.90596617 0 0 Z " fill="#3FC8D2" transform="translate(335,294)"/>
<path d="M0 0 C0.7425 0.495 0.7425 0.495 1.5 1 C-1.74704749 2.62352374 -5.19813734 2.01459542 -8.7734375 1.9375 C-11.21349393 1.99343253 -13.17691653 2.29536805 -15.5 3 C-15.5 2.34 -15.5 1.68 -15.5 1 C-10.50367864 -1.49816068 -5.28145731 -2.11258292 0 0 Z " fill="#3BC7D2" transform="translate(353.5,292)"/>
</svg>
